<svg id="visual" viewBox="0 0 900 600" width="900" height="600" xmlns="http://www.w3.org/2000/svg" xmlns:xlink="http://www.w3.org/1999/xlink" version="1.1"><rect x="0" y="0" width="900" height="600" fill="#E0F2FE"></rect><path d="M0 122L13.7 117.8C27.3 113.7 54.7 105.3 82 102.7C109.3 100 136.7 103 163.8 105.5C191 108 218 110 245.2 112.5C272.3 115 299.7 118 327 116.7C354.3 115.3 381.7 109.7 409 107C436.3 104.3 463.7 104.7 491 106.7C518.3 108.7 545.7 112.3 573 115.3C600.3 118.3 627.7 120.7 654.8 124C682 127.3 709 131.7 736.2 127.3C763.3 123 790.7 110 818 103.5C845.3 97 872.7 97 886.3 97L900 97L900 0L886.3 0C872.7 0 845.3 0 818 0C790.7 0 763.3 0 736.2 0C709 0 682 0 654.8 0C627.7 0 600.3 0 573 0C545.7 0 518.3 0 491 0C463.7 0 436.3 0 409 0C381.7 0 354.3 0 327 0C299.7 0 272.3 0 245.2 0C218 0 191 0 163.8 0C136.7 0 109.3 0 82 0C54.7 0 27.3 0 13.7 0L0 0Z" fill="#2563EB" stroke-linecap="round" stroke-linejoin="miter"></path></svg>